<svg width="15" height="14" viewBox="0 0 15 14" fill="none" xmlns="http://www.w3.org/2000/svg">
<path d="M13.9559 4.42387C13.6362 4.12407 13.1278 4.10523 12.7841 4.36765C12.7344 4.4056 12.7729 4.37216 12.016 5.08127L13.9807 6.92197L14.6868 6.2687C15.0282 5.94886 15.0282 5.42845 14.6868 5.10859L13.9559 4.42387Z" fill="#FF8007"/>
<path d="M7.98708 8.89077L6.83136 11.211C6.75352 11.3673 6.78834 11.5525 6.91851 11.6745C7.04868 11.7965 7.24645 11.829 7.41322 11.7561L9.8898 10.6733C9.98778 10.6305 9.69115 10.8906 13.3578 7.49835L11.3969 5.66129C7.76156 9.06719 8.03372 8.79717 7.98708 8.89077Z" fill="#FF8007"/>
<path d="M10.6274 11.1773C10.5202 11.2765 10.3966 11.357 10.2601 11.4167L7.78355 12.4995C7.29655 12.7124 6.70159 12.6314 6.29949 12.2546C5.9104 11.8901 5.8053 11.3313 6.03798 10.8641L7.19373 8.54383C7.25864 8.41354 7.3466 8.2959 7.45515 8.19418L11.1784 4.70602V1.23047C11.1784 0.551988 10.5892 0 9.86497 0H1.31338C0.589184 0 0 0.551988 0 1.23047V12.7695C0 13.448 0.589184 14 1.31338 14H9.86497C10.5892 14 11.1784 13.448 11.1784 12.7695V10.6676L10.6274 11.1773ZM2.33493 2.65234H8.87267C9.11445 2.65234 9.31046 2.83598 9.31046 3.0625C9.31046 3.28902 9.11445 3.47266 8.87267 3.47266H2.33493C2.09316 3.47266 1.89714 3.28902 1.89714 3.0625C1.89714 2.83598 2.09316 2.65234 2.33493 2.65234ZM2.33493 4.83984H7.47173C7.71351 4.83984 7.90952 5.02348 7.90952 5.25C7.90952 5.47652 7.71351 5.66016 7.47173 5.66016H2.33493C2.09316 5.66016 1.89714 5.47652 1.89714 5.25C1.89714 5.02348 2.09316 4.83984 2.33493 4.83984ZM1.89714 7.4375C1.89714 7.21098 2.09316 7.02734 2.33493 7.02734H6.07078C6.31256 7.02734 6.50858 7.21098 6.50858 7.4375C6.50858 7.66402 6.31256 7.84766 6.07078 7.84766H2.33493C2.09316 7.84766 1.89714 7.66402 1.89714 7.4375Z" fill="#3A7FD5"/>
</svg>
